<svg xmlns="http://www.w3.org/2000/svg" xmlns:xlink="http://www.w3.org/1999/xlink" aria-hidden="true" role="img" class="iconify iconify--icon-park-outline" width="32" height="32" preserveAspectRatio="xMidYMid meet" viewBox="0 0 48 48"><g fill="currentColor" fill-rule="evenodd" clip-rule="evenodd"><path d="M41.072 5.994L3.312 16.52l9.074 9.294l8.414.146l9.683-9.44c-.256-.525-.384-.964-.384-1.318c0-.794.312-1.422.796-1.868c.83-.763 1.828-.877 2.994-.342l7.183-6.997z"></path><path d="M42.103 6.728L31.578 44.49l-9.294-9.075L22.138 27l9.374-9.518a2.542 2.542 0 0 0 1.665.495c.902-.05 1.485-.596 1.759-.917a2.35 2.35 0 0 0 .567-1.649a2.566 2.566 0 0 0-.521-1.464l7.12-7.219z"></path></g></svg>